#Comment line ignore any data following # character 
#Hierarchical Translation and Rotation (.htr) file 
[Header]	
#Header keywords are followed by a single value 
FileType HTR		#Single word string
DataType HTRS		#Translation followed by rotation and scale data
FileVersion 1		#integer
NumSegments 64		#integer
NumFrames 3		#integer
DataFrameRate 30		#integer, data frame rate in this file
EulerRotationOrder ZYX
CalibrationUnits mm
RotationUnits Degrees
GlobalAxisofGravity Y
BoneLengthAxis Y
ScaleFactor 1.00
[SegmentNames&Hierarchy]
#CHILD	PARENT
Pinger_Root GLOBAL
Pelvis Pinger_Root
L_Hip Pelvis
R_Hip Pelvis
Rear_Leg01 Pelvis
Spine1 Pelvis
L_Leg01 L_Hip
L_Leg02 L_Leg01
L_Leg03 L_Leg02
L_Foot L_Leg03
L_Toe1_01 L_Foot
L_Toe2_01 L_Foot
L_Toe3_01 L_Foot
planeAlignerLeft L_Foot
L_Toe1_02 L_Toe1_01
L_Toe1_03 L_Toe1_02
L_Toe2_02 L_Toe2_01
L_Toe2_03 L_Toe2_02
L_Toe3_02 L_Toe3_01
L_Toe3_03 L_Toe3_02
planeLockWeightLeft planeAlignerLeft
R_Leg01 R_Hip
R_Leg02 R_Leg01
R_Leg03 R_Leg02
R_Foot R_Leg03
planeAlignerRight R_Foot
R_Toe1_01 R_Foot
R_Toe2_01 R_Foot
R_Toe3_01 R_Foot
planeLockWeightRight planeAlignerRight
R_Toe1_02 R_Toe1_01
R_Toe1_03 R_Toe1_02
R_Toe2_02 R_Toe2_01
R_Toe2_03 R_Toe2_02
R_Toe3_02 R_Toe3_01
R_Toe3_03 R_Toe3_02
Rear_Leg02 Rear_Leg01
Rear_Leg03 Rear_Leg02
Rear_Leg04 Rear_Leg03
Rear_Foot Rear_Leg04
planeAlignerCenter Rear_Foot
Rear_Toe1_01 Rear_Foot
Rear_Toe2_01 Rear_Foot
Rear_Toe3_01 Rear_Foot
planeLockWeightCenter planeAlignerCenter
Rear_Toe1_02 Rear_Toe1_01
Rear_Toe1_03 Rear_Toe1_02
Rear_Toe2_02 Rear_Toe2_01
Rear_Toe2_03 Rear_Toe2_02
Rear_Toe3_02 Rear_Toe3_01
Rear_Toe3_03 Rear_Toe3_02
Back_Bone Spine1
Head Spine1
Motor_Bone Back_Bone
Ping_Mechanism Back_Bone
BN_LookIK Head
bottomMouth Head
L_Mouth01 Head
L_mouthFront Head
mouthGun Head
R_Mouth01 Head
R_mouthFront Head
TopMouth Head
weapon_bone Head
[BasePosition]
#SegmentName Tx, Ty, Tz, Rx, Ry, Rz, BoneLength
Pinger_Root 0.000000 0.000000 0.000000 -90.000000 0.000000 0.000000 10.000000 
Pelvis 0.000000 0.000000 0.000000 0.000000 0.000000 0.000000 10.000000 
L_Hip 0.000000 0.000000 0.000000 0.000000 0.000000 0.000000 10.000000 
R_Hip 0.000000 0.000000 0.000000 0.000000 0.000000 0.000000 10.000000 
Rear_Leg01 0.000000 0.000000 0.000000 0.000000 0.000000 0.000000 10.000000 
Spine1 0.000000 0.000000 0.000000 0.000000 0.000000 0.000000 10.000000 
L_Leg01 0.000000 0.000000 0.000000 0.000000 0.000000 0.000000 10.000000 
L_Leg02 0.000000 0.000000 0.000000 0.000000 0.000000 0.000000 10.000000 
L_Leg03 0.000000 0.000000 0.000000 0.000000 0.000000 0.000000 10.000000 
L_Foot 0.000000 0.000000 0.000000 0.000000 0.000000 0.000000 10.000000 
L_Toe1_01 0.000000 0.000000 0.000000 0.000000 0.000000 0.000000 10.000000 
L_Toe2_01 0.000000 0.000000 0.000000 0.000000 0.000000 0.000000 10.000000 
L_Toe3_01 0.000000 0.000000 0.000000 0.000000 0.000000 0.000000 10.000000 
planeAlignerLeft 0.000000 0.000000 0.000000 0.000000 0.000000 0.000000 10.000000 
L_Toe1_02 0.000000 0.000000 0.000000 0.000000 0.000000 0.000000 10.000000 
L_Toe1_03 0.000000 0.000000 0.000000 0.000000 0.000000 0.000000 10.000000 
L_Toe2_02 0.000000 0.000000 0.000000 0.000000 0.000000 0.000000 10.000000 
L_Toe2_03 0.000000 0.000000 0.000000 0.000000 0.000000 0.000000 10.000000 
L_Toe3_02 0.000000 0.000000 0.000000 0.000000 0.000000 0.000000 10.000000 
L_Toe3_03 0.000000 0.000000 0.000000 0.000000 0.000000 0.000000 10.000000 
planeLockWeightLeft 0.000000 0.000000 0.000000 0.000000 0.000000 0.000000 10.000000 
R_Leg01 0.000000 0.000000 0.000000 0.000000 0.000000 0.000000 10.000000 
R_Leg02 0.000000 0.000000 0.000000 0.000000 0.000000 0.000000 10.000000 
R_Leg03 0.000000 0.000000 0.000000 0.000000 0.000000 0.000000 10.000000 
R_Foot 0.000000 0.000000 0.000000 0.000000 0.000000 0.000000 10.000000 
planeAlignerRight 0.000000 0.000000 0.000000 0.000000 0.000000 0.000000 10.000000 
R_Toe1_01 0.000000 0.000000 0.000000 0.000000 0.000000 0.000000 10.000000 
R_Toe2_01 0.000000 0.000000 0.000000 0.000000 0.000000 0.000000 10.000000 
R_Toe3_01 0.000000 0.000000 0.000000 0.000000 0.000000 0.000000 10.000000 
planeLockWeightRight 0.000000 0.000000 0.000000 0.000000 0.000000 0.000000 10.000000 
R_Toe1_02 0.000000 0.000000 0.000000 0.000000 0.000000 0.000000 10.000000 
R_Toe1_03 0.000000 0.000000 0.000000 0.000000 0.000000 0.000000 10.000000 
R_Toe2_02 0.000000 0.000000 0.000000 0.000000 0.000000 0.000000 10.000000 
R_Toe2_03 0.000000 0.000000 0.000000 0.000000 0.000000 0.000000 10.000000 
R_Toe3_02 0.000000 0.000000 0.000000 0.000000 0.000000 0.000000 10.000000 
R_Toe3_03 0.000000 0.000000 0.000000 0.000000 0.000000 0.000000 10.000000 
Rear_Leg02 0.000000 0.000000 0.000000 0.000000 0.000000 0.000000 10.000000 
Rear_Leg03 0.000000 0.000000 0.000000 0.000000 0.000000 0.000000 10.000000 
Rear_Leg04 0.000000 0.000000 0.000000 0.000000 0.000000 0.000000 10.000000 
Rear_Foot 0.000000 0.000000 0.000000 0.000000 0.000000 0.000000 10.000000 
planeAlignerCenter 0.000000 0.000000 0.000000 0.000000 0.000000 0.000000 10.000000 
Rear_Toe1_01 0.000000 0.000000 0.000000 0.000000 0.000000 0.000000 10.000000 
Rear_Toe2_01 0.000000 0.000000 0.000000 0.000000 0.000000 0.000000 10.000000 
Rear_Toe3_01 0.000000 0.000000 0.000000 0.000000 0.000000 0.000000 10.000000 
planeLockWeightCenter 0.000000 0.000000 0.000000 0.000000 0.000000 0.000000 10.000000 
Rear_Toe1_02 0.000000 0.000000 0.000000 0.000000 0.000000 0.000000 10.000000 
Rear_Toe1_03 0.000000 0.000000 0.000000 0.000000 0.000000 0.000000 10.000000 
Rear_Toe2_02 0.000000 0.000000 0.000000 0.000000 0.000000 0.000000 10.000000 
Rear_Toe2_03 0.000000 0.000000 0.000000 0.000000 0.000000 0.000000 10.000000 
Rear_Toe3_02 0.000000 0.000000 0.000000 0.000000 0.000000 0.000000 10.000000 
Rear_Toe3_03 0.000000 0.000000 0.000000 0.000000 0.000000 0.000000 10.000000 
Back_Bone 0.000000 0.000000 0.000000 0.000000 0.000000 0.000000 10.000000 
Head 0.000000 0.000000 0.000000 0.000000 0.000000 0.000000 10.000000 
Motor_Bone 0.000000 0.000000 0.000000 0.000000 0.000000 0.000000 10.000000 
Ping_Mechanism 0.000000 0.000000 0.000000 0.000000 0.000000 0.000000 10.000000 
BN_LookIK 0.000000 0.000000 0.000000 0.000000 0.000000 0.000000 10.000000 
bottomMouth 0.000000 0.000000 0.000000 0.000000 0.000000 0.000000 10.000000 
L_Mouth01 0.000000 0.000000 0.000000 0.000000 0.000000 0.000000 10.000000 
L_mouthFront 0.000000 0.000000 0.000000 0.000000 0.000000 0.000000 10.000000 
mouthGun 0.000000 0.000000 0.000000 0.000000 0.000000 0.000000 10.000000 
R_Mouth01 0.000000 0.000000 0.000000 0.000000 0.000000 0.000000 10.000000 
R_mouthFront 0.000000 0.000000 0.000000 0.000000 0.000000 0.000000 10.000000 
TopMouth 0.000000 0.000000 0.000000 0.000000 0.000000 0.000000 10.000000 
weapon_bone 0.000000 0.000000 0.000000 0.000000 0.000000 0.000000 10.000000 
#Beginning of Data. Separated by tabs
#Fr	Tx	Ty	Tz	Rx	Ry	Rz	SF
[Pinger_Root]
40 0.000000 0.000000 0.000000 -0.000064 -0.000042 -66.971718 0.000000
41 0.000000 0.000000 0.000000 -0.000063 -0.000043 -69.298897 0.000000
42 0.000000 0.000000 0.000000 -0.000062 -0.000045 -71.620338 0.000000
[Pelvis]
40 197.551376 214.834564 4382.394043 -16.858124 -81.029289 -14.398435 4392.101563
41 135.990829 209.170471 4395.925293 -15.505344 -82.720718 -12.639047 4403.000000
42 78.243416 207.545776 4409.242676 -14.278626 -84.417206 -10.759351 4414.818359
[L_Hip]
40 5.766392 125.831482 872.656799 133.945953 -58.532810 153.292618 881.701050
41 5.766392 125.831482 872.656799 149.559799 -52.784401 135.496277 881.701050
42 5.766392 125.831482 872.656799 157.629440 -47.609680 125.593849 881.701050
[R_Hip]
40 5.765438 125.836372 -872.654907 21.914631 56.807724 105.645874 881.699829
41 5.765438 125.836372 -872.654907 25.019407 55.911869 109.372734 881.699829
42 5.765438 125.836372 -872.654907 27.944002 54.908253 112.922791 881.699829
[Rear_Leg01]
40 -192.298416 -925.602966 -0.001907 164.964554 8.619118 -163.670059 945.367432
41 -192.298416 -925.602966 -0.001907 166.980316 7.670298 -163.646896 945.367432
42 -192.298416 -925.602966 -0.001907 167.749023 6.316210 -163.610092 945.367432
[Spine1]
40 290.604584 5.007505 0.000477 4.135847 -9.965706 22.251122 290.647736
41 290.604584 5.007505 0.000477 3.892615 -8.119186 22.641832 290.647736
42 290.604584 5.007505 0.000477 3.663040 -6.271083 23.023066 290.647736
[L_Leg01]
40 761.932007 -0.002384 -0.069261 36.874428 -6.497716 -38.404121 761.932068
41 761.932007 -0.002384 -0.069261 32.178738 -3.194599 -36.465210 761.932068
42 761.932007 -0.002384 -0.069261 28.821632 -1.141812 -32.300743 761.932068
[L_Leg02]
40 1441.140503 -0.000954 -0.000715 -4.519673 0.222094 -135.908371 1441.140503
41 1441.140503 -0.000954 -0.000715 -0.259313 0.109974 -145.449326 1441.140503
42 1441.140503 -0.000954 -0.000715 4.151785 1.492613 -152.463364 1441.140503
[L_Leg03]
40 1686.963989 -0.000715 -0.000954 -0.045107 0.024221 122.822212 1686.963989
41 1686.963989 -0.000715 -0.000954 -0.082111 0.042955 132.231232 1686.963989
42 1686.963989 -0.000715 -0.000954 -0.112397 0.067859 140.011810 1686.963989
[L_Foot]
40 3041.570068 -30.715107 11.297464 -38.453304 43.063580 47.636791 3041.746094
41 3041.570068 -30.715107 11.297464 -28.808096 36.267101 51.053829 3041.746094
42 3041.570068 -30.715107 11.297464 -17.336691 30.846951 50.345142 3041.746094
[L_Toe1_01]
40 -188.216690 -224.732346 -21.137953 78.053352 -6.347575 -147.539948 293.899567
41 -188.216690 -224.732346 -21.137953 71.788963 -4.307722 -136.173859 293.899567
42 -188.216690 -224.732346 -21.137953 77.379631 -3.819566 -133.065826 293.899567
[L_Toe2_01]
40 200.746536 -219.926590 148.838394 -96.130341 6.725685 -73.454613 332.896027
41 200.746536 -219.926590 148.838394 -95.283791 8.734812 -78.347122 332.896027
42 200.746536 -219.926590 148.838394 -92.752953 7.928057 -77.772224 332.896027
[L_Toe3_01]
40 188.832520 -219.859131 -191.078659 -109.978188 11.008255 -98.279160 347.140900
41 188.832520 -219.859131 -191.078659 -110.217041 9.537580 -99.910248 347.140900
42 188.832520 -219.859131 -191.078659 -111.028503 9.276772 -96.787163 347.140900
[planeAlignerLeft]
40 167.437439 -690.746887 -110.045235 -142.397842 -63.270401 43.727459 719.219360
41 181.323730 -668.558533 -118.161400 -140.248886 -61.199970 43.262550 702.716797
42 199.834137 -772.365234 -24.999260 -141.755859 -67.889221 51.012321 798.189636
[L_Toe1_02]
40 413.761139 0.000477 0.000000 0.001441 -19.117907 0.001441 413.761139
41 413.761139 0.000477 0.000000 0.001427 -20.619171 0.001427 413.761139
42 413.761139 0.000477 0.000000 0.001406 -23.275433 0.001406 413.761139
[L_Toe1_03]
40 464.317322 0.000358 -0.000089 -179.983047 86.477188 -179.979553 464.317322
41 464.317322 0.000358 -0.000089 0.076484 88.241302 0.076484 464.317322
42 464.317322 0.000358 -0.000089 0.010905 77.643982 0.010905 464.317322
[L_Toe2_02]
40 342.235809 -0.000477 0.000238 0.001183 -75.697647 0.001183 342.235809
41 342.235809 -0.000477 0.000238 0.001181 -76.936768 0.001181 342.235809
42 342.235809 -0.000477 0.000238 0.001181 -77.436646 0.001181 342.235809
[L_Toe2_03]
40 420.210846 -0.000715 0.000000 -179.988632 84.979210 -179.985138 420.210846
41 420.210846 -0.000715 0.000000 -179.994797 80.517113 -179.991287 420.210846
42 420.210846 -0.000715 0.000000 -179.996063 78.426872 -179.992554 420.210846
[L_Toe3_02]
40 329.270111 0.000954 0.000000 -0.010233 -69.120224 0.009064 329.270111
41 329.270111 0.000954 0.000000 0.001188 -72.303940 0.001188 329.270111
42 329.270111 0.000954 0.000000 0.001188 -72.224358 0.001188 329.270111
[L_Toe3_03]
40 439.137451 -0.001907 0.000954 -0.001865 71.806572 -0.005406 439.137451
41 439.137451 -0.001907 0.000954 0.011439 78.222710 0.011439 439.137451
42 439.137451 -0.001907 0.000954 0.011275 78.050758 0.011275 439.137451
[planeLockWeightLeft]
40 0.000402 0.098267 0.076141 -0.011826 -0.004376 0.005620 0.124314
41 -0.000153 0.098267 0.076103 -0.011826 -0.004376 0.005620 0.124290
42 -0.000114 0.098267 0.076065 -0.011826 -0.004376 0.005620 0.124267
[R_Leg01]
40 761.455627 -0.001907 -0.000358 117.321533 -7.285599 43.286308 761.455688
41 761.455627 -0.001907 -0.000358 118.072578 -7.130993 41.817783 761.455688
42 761.455627 -0.001907 -0.000358 119.006348 -6.853120 40.427174 761.455688
[R_Leg02]
40 1441.140625 0.000000 -0.000238 -0.816608 -0.028903 -104.529320 1441.140625
41 1441.140625 0.000000 -0.000238 -0.778334 -0.001090 -103.747993 1441.140625
42 1441.140625 0.000000 -0.000238 -0.724196 0.027558 -102.472862 1441.140625
[R_Leg03]
40 1686.963989 0.000954 0.001431 0.068099 -0.034908 128.518860 1686.963989
41 1686.963989 0.000954 0.001431 0.061948 -0.031733 126.907974 1686.963989
42 1686.963989 0.000954 0.001431 0.055711 -0.028733 125.297417 1686.963989
[R_Foot]
40 3041.560059 -30.531288 -11.204481 -2.305803 -24.065252 42.106892 3041.734131
41 3041.560059 -30.531288 -11.204481 -1.823663 -24.044935 42.091316 3041.734131
42 3041.560059 -30.531288 -11.204481 -1.341601 -24.024488 42.075909 3041.734131
[planeAlignerRight]
40 -126.619858 -502.581055 -309.555939 -37.150826 -71.722046 -63.798660 603.692993
41 -126.622917 -499.058685 -309.984894 -37.034252 -71.645584 -63.909569 600.985535
42 -126.636040 -498.966217 -311.620026 -36.918579 -71.569031 -64.019531 601.756592
[R_Toe1_01]
40 -188.383347 -224.864899 21.052242 77.360054 -0.744368 -177.474319 294.101532
41 -188.383347 -224.864899 21.052242 77.195557 -0.706028 -177.524658 294.101532
42 -188.383347 -224.864899 21.052242 77.031036 -0.667832 -177.575119 294.101532
[R_Toe2_01]
40 200.637817 -220.002121 -148.787384 -89.920944 34.334324 -54.713852 332.857574
41 200.637817 -220.002121 -148.787384 -89.800598 34.477230 -54.541370 332.857574
42 200.637817 -220.002121 -148.787384 -89.679466 34.619804 -54.368191 332.857574
[R_Toe3_01]
40 188.606735 -220.092957 191.126343 -73.399765 -10.375977 -68.887032 347.192566
41 188.606735 -220.092957 191.126343 -73.354416 -10.199599 -68.863625 347.192566
42 188.606735 -220.092957 191.126343 -73.308983 -10.023229 -68.840073 347.192566
[planeLockWeightRight]
40 999.999573 -0.000148 0.075885 -0.011823 -0.004379 -0.000027 999.999573
41 999.999512 -0.000140 0.075887 -0.011823 -0.004379 -0.000027 999.999512
42 999.999512 -0.000131 0.075889 -0.011823 -0.004379 -0.000027 999.999512
[R_Toe1_02]
40 413.762085 0.000477 -0.000119 0.001397 -24.341909 0.001397 413.762085
41 413.762085 0.000477 -0.000119 0.001397 -24.336533 0.001397 413.762085
42 413.762085 0.000477 -0.000119 0.001397 -24.331158 0.001397 413.762085
[R_Toe1_03]
40 464.317810 0.000000 0.001088 0.007654 72.360229 0.007654 464.317810
41 464.317810 0.000000 0.001088 0.007680 72.419952 0.007680 464.317810
42 464.317810 0.000000 0.001088 0.007706 72.479668 0.007706 464.317810
[R_Toe2_02]
40 342.234741 -0.000954 0.000238 0.001191 -70.665894 0.001191 342.234741
41 342.234741 -0.000954 0.000238 0.001190 -70.741173 0.001190 342.234741
42 342.234741 -0.000954 0.000238 0.001190 -70.816475 0.001190 342.234741
[R_Toe2_03]
40 420.210846 0.000715 -0.000268 0.015695 81.423111 0.015695 420.210846
41 420.210846 0.000715 -0.000268 0.016119 81.649460 0.016119 420.210846
42 420.210846 0.000715 -0.000268 0.015896 81.531883 0.015896 420.210846
[R_Toe3_02]
40 329.270355 -0.000477 -0.000954 0.001180 -78.271439 0.001180 329.270355
41 329.270355 -0.000477 -0.000954 0.001180 -78.363007 0.001180 329.270355
42 329.270355 -0.000477 -0.000954 0.001180 -78.454506 0.001180 329.270355
[R_Toe3_03]
40 439.137939 0.000238 0.001431 -179.985260 86.003502 -179.981766 439.137939
41 439.137939 0.000238 0.001431 -179.986877 85.570793 -179.983383 439.137939
42 439.137939 0.000238 0.001431 -179.986237 85.752869 -179.982742 439.137939
[Rear_Leg02]
40 1162.777710 -0.029802 0.005960 3.811103 -5.994041 -145.680740 1162.777710
41 1162.777710 -0.029802 0.005960 3.417588 -5.447970 -145.249527 1162.777710
42 1162.777710 -0.029802 0.005960 3.056499 -4.892105 -145.030594 1162.777710
[Rear_Leg03]
40 607.192505 -0.013351 -0.073195 0.010336 -0.005415 71.654076 607.192505
41 607.192505 -0.013351 -0.073195 0.010342 -0.005403 71.518578 607.192505
42 607.192505 -0.013351 -0.073195 0.010349 -0.005390 71.383087 607.192505
[Rear_Leg04]
40 995.874512 -0.020504 -0.011921 -0.041296 -0.016239 74.428513 995.874573
41 995.874512 -0.020504 -0.011921 -0.041266 -0.016313 74.222313 995.874573
42 995.874512 -0.020504 -0.011921 -0.041237 -0.016387 74.016090 995.874573
[Rear_Foot]
40 3096.176270 -0.067472 -0.041425 -103.724030 83.596138 81.678963 3096.176270
41 3096.176270 -0.067472 -0.041425 -98.263885 84.301231 86.833115 3096.176270
42 3096.176270 -0.067472 -0.041425 -91.384384 84.944061 93.406570 3096.176270
[planeAlignerCenter]
40 -60.756771 -14.260558 -731.580322 12.888584 -5.645205 173.357788 734.237366
41 -59.382370 -15.003046 -705.885864 12.676928 -4.979652 174.980957 708.538086
42 -58.282555 -15.345456 -695.774048 12.610159 -4.748731 175.538361 698.379395
[Rear_Toe1_01]
40 0.653352 83.966492 -371.173737 8.063793 39.186218 89.224312 380.553192
41 0.653352 83.966492 -371.173737 7.262317 37.050209 90.474678 380.553192
42 0.653352 83.966492 -371.173737 6.956348 36.239704 90.863220 380.553192
[Rear_Toe2_01]
40 178.200760 -294.826019 -362.060547 -14.786564 34.322044 -80.175102 499.765686
41 178.200760 -294.826019 -362.060547 -13.889868 32.904999 -77.711853 499.765686
42 178.200760 -294.826019 -362.060547 -13.574284 32.324753 -76.823891 499.765686
[Rear_Toe3_01]
40 -153.359680 -308.780914 -362.060852 -2.440529 27.301126 -125.073540 499.952881
41 -153.359680 -308.780914 -362.060852 -1.653023 26.575111 -122.771118 499.952881
42 -153.359680 -308.780914 -362.060852 -1.365583 26.256386 -121.941048 499.952881
[planeLockWeightCenter]
40 1000.000244 0.000610 0.076128 -0.011814 -0.004373 -0.000015 1000.000244
41 1000.000122 0.000610 0.076135 -0.011814 -0.004373 -0.000015 1000.000122
42 1000.000122 0.000610 0.076142 -0.011814 -0.004373 -0.000015 1000.000122
[Rear_Toe1_02]
40 379.707825 0.194073 0.000477 0.000514 -32.598423 0.004155 379.707855
41 379.707825 0.194073 0.000477 0.001334 -33.160069 0.001334 379.707855
42 379.707825 0.194073 0.000477 0.001334 -33.160080 0.001334 379.707855
[Rear_Toe1_03]
40 500.129700 0.165701 0.000119 -0.003959 58.908394 -0.000330 500.129761
41 500.129700 0.165701 0.000119 -0.004238 62.745159 -0.000640 500.129761
42 500.129700 0.165701 0.000119 -0.004364 64.158119 -0.000777 500.129761
[Rear_Toe2_02]
40 340.494507 0.000238 -0.000954 0.001191 -70.616341 0.001191 340.494507
41 340.494507 0.000238 -0.000954 0.001189 -71.790291 0.001189 340.494507
42 340.494507 0.000238 -0.000954 0.001188 -72.022667 0.001188 340.494507
[Rear_Toe2_03]
40 433.103577 0.000000 0.000238 0.007100 70.972313 0.007100 433.103546
41 433.103577 0.000000 0.000238 0.007879 72.866470 0.007879 433.103546
42 433.103577 0.000000 0.000238 0.008161 73.463913 0.008161 433.103546
[Rear_Toe3_02]
40 340.494141 -0.000358 -0.000477 0.008065 -66.682175 -0.009238 340.494171
41 340.494141 -0.000358 -0.000477 0.008217 -67.090630 -0.009390 340.494171
42 340.494141 -0.000358 -0.000477 0.008217 -67.090637 -0.009390 340.494171
[Rear_Toe3_03]
40 433.103577 0.001431 -0.000238 -0.000903 65.352776 -0.004482 433.103546
41 433.103577 0.001431 -0.000238 -0.000932 65.605782 -0.004509 433.103546
42 433.103577 0.001431 -0.000238 -0.000961 65.858780 -0.004536 433.103546
[Back_Bone]
40 1312.175781 -701.934692 0.000954 0.000023 -0.000007 -85.606667 1488.125488
41 1312.175781 -701.934692 0.000954 0.000023 -0.000007 -85.606667 1488.125488
42 1312.175781 -701.934692 0.000954 0.000023 -0.000007 -85.606667 1488.125488
[Head]
40 1406.159424 809.709290 0.001431 0.000008 0.000003 7.767519 1622.625488
41 1406.159424 809.709290 0.001431 0.000008 0.000003 7.767519 1622.625488
42 1406.159424 809.709290 0.001431 0.000008 0.000003 7.767519 1622.625488
[Motor_Bone]
40 1158.364380 -417.834747 0.000477 -0.064854 9.499144 -105.348419 1231.419434
41 1158.364380 -417.834747 0.000477 -0.057962 10.321252 -105.300133 1231.419434
42 1158.364380 -417.834747 0.000477 -0.055231 10.544736 -105.290680 1231.419434
[Ping_Mechanism]
40 1222.813721 -433.125610 45.534233 0.000103 -0.000053 82.120995 1298.054077
41 1221.579224 -433.586731 36.846809 0.000103 -0.000053 82.120995 1296.769409
42 1220.344604 -434.047852 28.159336 0.000103 -0.000053 82.120995 1295.542969
[BN_LookIK]
40 193.241119 1380.371704 -0.002861 0.000000 89.965736 -31.038179 1393.832153
41 193.241119 1380.371704 -0.002861 0.000000 89.965736 -31.038179 1393.832153
42 193.241119 1380.371704 -0.002861 0.000000 89.965736 -31.038179 1393.832153
[bottomMouth]
40 -435.092926 615.759399 -0.000954 -0.000022 0.000016 73.527184 753.966492
41 -435.092926 615.759399 -0.000954 -0.000022 0.000016 73.527184 753.966492
42 -435.092926 615.759399 -0.000954 -0.000022 0.000016 73.527184 753.966492
[L_Mouth01]
40 554.440979 7.658243 838.222046 150.204178 23.759130 109.605339 1005.027161
41 554.440979 7.658243 838.222046 150.204178 23.759130 109.605339 1005.027161
42 554.440979 7.658243 838.222046 150.204178 23.759130 109.605339 1005.027161
[L_mouthFront]
40 551.629089 934.514771 339.150421 0.000081 2.804060 79.119301 1136.941284
41 551.629089 934.514771 339.150421 0.000081 2.804060 79.119301 1136.941284
42 551.629089 934.514771 339.150421 0.000081 2.804060 79.119301 1136.941284
[mouthGun]
40 55.332661 1627.420898 0.000000 0.000023 0.000009 -11.038128 1628.361328
41 55.332661 1627.420898 0.000000 0.000023 0.000009 -11.038128 1628.361328
42 55.332661 1627.420898 0.000000 0.000023 0.000009 -11.038128 1628.361328
[R_Mouth01]
40 554.442383 7.659197 -838.223938 29.795891 -23.759109 109.605331 1005.029541
41 554.442383 7.659197 -838.223938 29.795891 -23.759109 109.605331 1005.029541
42 554.442383 7.659197 -838.223938 29.795891 -23.759109 109.605331 1005.029541
[R_mouthFront]
40 551.629089 934.514282 -339.151367 0.000029 -2.803930 79.119133 1136.941162
41 551.629089 934.514282 -339.151367 0.000029 -2.803930 79.119133 1136.941162
42 551.629089 934.514282 -339.151367 0.000029 -2.803930 79.119133 1136.941162
[TopMouth]
40 461.269867 -56.106091 -0.008583 -0.000059 -0.000268 92.025169 464.669525
41 461.269867 -56.106091 -0.008583 -0.000059 -0.000268 92.025169 464.669525
42 461.269867 -56.106091 -0.008583 -0.000059 -0.000268 92.025169 464.669525
[weapon_bone]
40 -987.239868 1448.372803 0.001431 0.000000 89.965736 -31.038221 1752.833740
41 -987.239868 1448.372803 0.001431 0.000000 89.965736 -31.038221 1752.833740
42 -987.239868 1448.372803 0.001431 0.000000 89.965736 -31.038221 1752.833740
